<svg xmlns="http://www.w3.org/2000/svg" viewBox="0 0 512 512" role="img" aria-label="ClickClack app logo">
  <defs>
    <linearGradient id="bg" x1="68" y1="48" x2="444" y2="472" gradientUnits="userSpaceOnUse">
      <stop offset="0" stop-color="#141b22"/>
      <stop offset="1" stop-color="#0b1016"/>
    </linearGradient>
    <linearGradient id="coral" x1="128" y1="118" x2="384" y2="382" gradientUnits="userSpaceOnUse">
      <stop offset="0" stop-color="#ff7a61"/>
      <stop offset="1" stop-color="#f04f5f"/>
    </linearGradient>
    <linearGradient id="teal" x1="152" y1="154" x2="360" y2="350" gradientUnits="userSpaceOnUse">
      <stop offset="0" stop-color="#57e0d4"/>
      <stop offset="1" stop-color="#2ba7ff"/>
    </linearGradient>
    <filter id="softShadow" x="-20%" y="-20%" width="140%" height="140%">
      <feDropShadow dx="0" dy="18" stdDeviation="18" flood-color="#000000" flood-opacity="0.28"/>
    </filter>
  </defs>

  <rect width="512" height="512" rx="104" fill="url(#bg)"/>

  <g filter="url(#softShadow)" transform="translate(0 8) scale(1.04)" transform-origin="256 256">
    <path
      fill="#0f151c"
      stroke="#d8f7f3"
      stroke-linejoin="round"
      stroke-width="18"
      d="M151 214c0-41 33-74 74-74h62c49 0 89 40 89 89v27c0 49-40 89-89 89h-43l-61 52c-11 9-28 2-28-13v-48c-27-12-46-39-46-71v-51z"/>

    <path
      fill="url(#coral)"
      d="M170 196c-18-28-10-65 18-83 17-11 39-11 56-2l-37 52 60-18c8 21 1 45-17 59-24 20-59 16-80-8z"/>
    <path
      fill="url(#coral)"
      d="M342 196c18-28 10-65-18-83-17-11-39-11-56-2l37 52-60-18c-8 21-1 45 17 59 24 20 59 16 80-8z"/>

    <path
      fill="none"
      stroke="url(#coral)"
      stroke-linecap="round"
      stroke-width="28"
      d="M178 222c28-28 56-42 84-42s56 14 84 42"/>

    <path
      fill="#0f151c"
      d="M176 222c28-25 55-38 80-38s53 13 80 38c-22 34-48 51-80 51s-58-17-80-51z"/>

    <circle cx="204" cy="249" r="18" fill="url(#teal)"/>
    <circle cx="256" cy="249" r="18" fill="#f4fbf9"/>
    <circle cx="308" cy="249" r="18" fill="url(#teal)"/>

    <path
      fill="none"
      stroke="#57e0d4"
      stroke-linecap="round"
      stroke-width="16"
      d="M188 319h102"/>
    <path
      fill="none"
      stroke="#ff7a61"
      stroke-linecap="round"
      stroke-width="16"
      d="M188 355h62"/>
  </g>
</svg>
